<svg width="226" height="226" viewBox="0 0 226 226" fill="none" xmlns="http://www.w3.org/2000/svg">
<rect width="226" height="226" rx="24" fill="#131016"/>
<path fill-rule="evenodd" clip-rule="evenodd" d="M36.0524 90.7855C29.9483 93.3668 27.0926 100.408 29.6739 106.512L35.531 120.362C39.143 118.835 43.6968 121.441 45.7024 126.183C47.7079 130.926 46.4056 136.009 42.7937 137.536L49.0139 152.245C51.5952 158.349 58.6361 161.205 64.7401 158.624L166.179 115.727L137.491 47.8885L36.0524 90.7855Z" fill="#967ADC"/>
<path fill-rule="evenodd" clip-rule="evenodd" d="M161.646 37.6739L137.491 47.8886L166.179 115.727L190.333 105.512C196.437 102.931 199.293 95.8898 196.712 89.7857L191.214 76.7852C185.864 78.7826 179.842 76.2238 177.596 70.9137C175.35 65.6037 177.71 59.5001 182.87 57.0532L177.372 44.0524C174.79 37.9484 167.75 35.0926 161.646 37.6739Z" fill="#F6BB42"/>
<path d="M93.5621 81.6495L103.102 92.6538L116.516 86.9814L108.998 99.4548L118.538 110.459L104.352 107.164L96.834 119.637L95.5843 105.127L81.3983 101.832L94.8119 96.1595L93.5621 81.6495Z" fill="#FFCE54"/>
<line x1="151.322" y1="55.1994" x2="172.384" y2="105.005" stroke="#EDAB37" stroke-width="3"/>
<line x1="134.235" y1="109.606" x2="84.4294" y2="130.668" stroke="#967ADC" stroke-width="3"/>
<line x1="161.921" y1="65.9012" x2="172.452" y2="90.8038" stroke="#EDAB37" stroke-width="3"/>
<line x1="123.533" y1="120.206" x2="98.6302" y2="130.736" stroke="#967ADC" stroke-width="3"/>
<path fill-rule="evenodd" clip-rule="evenodd" d="M37 86.4669C30.3726 86.4669 25 91.8395 25 98.4669V115.467C29.2062 115.467 32.616 119.944 32.616 125.467C32.616 130.99 29.2062 135.467 25 135.467V153.467C25 160.094 30.3726 165.467 37 165.467H156V86.4669H37Z" fill="#AC92EC"/>
<path fill-rule="evenodd" clip-rule="evenodd" d="M185 86.4669H156V165.467H185C191.627 165.467 197 160.094 197 153.467V137.456C190.881 137.194 186 132.151 186 125.967C186 119.783 190.881 114.739 197 114.478V98.4669C197 91.8395 191.627 86.4669 185 86.4669Z" fill="#FFCE54"/>
<path d="M98.5 101.467L103.327 116.323H118.948L106.31 125.505L111.137 140.361L98.5 131.179L85.8626 140.361L90.6897 125.505L78.0523 116.323H93.6729L98.5 101.467Z" fill="#FFCE54"/>
<line x1="166.5" y1="99.4669" x2="166.5" y2="157.467" stroke="#F8C047" stroke-width="3"/>
<line x1="127" y1="145.967" x2="69" y2="145.967" stroke="#967ADC" stroke-width="3"/>
<line x1="172.5" y1="114.467" x2="172.5" y2="143.467" stroke="#F8C047" stroke-width="3"/>
<line x1="112" y1="151.967" x2="83" y2="151.967" stroke="#967ADC" stroke-width="3"/>
</svg>
